# xmcd
#
# Track frame offsets: 
#        150
#        14672
#        28867
#        41457
#        56067
#        71175
#        84350
#        97055
#        109610
#        123957
#        136682
#        149292
#        161562
#        175442
#        188375
#        201807
#        214027
#        227430
#        241890
#        255330
#        268015
#        279925
#        292805
#        307512
#        317482
#
# Disc length: 4416 seconds
#
# Revision: 1
# Processed by: cddbd v1.5.2PL0 Copyright (c) Steve Scherf et al.
# Submitted via: ExactAudioCopy v0.99pb3
#
DISCID=51113e19
DTITLE=Various Artist - The Birth Of A Dream (Capitol Records 50th Disc 1)
DYEAR=1992
DGENRE=Pop
TTITLE0=Freddie Slack With Ella Mae Morse - Cow-Cow Boogie
TTITLE1=Paul Whiteman - I've Got A Gal In Kalamazoo
TTITLE2=Tex Ritter - Jingle Jangle Jingle
TTITLE3=Paul Whitman With Billie Holiday - Trav'lin' Light
TTITLE4=Johnny Mercer - G.I. Jive
TTITLE5=Jo Stafford - Long Ago (And Far Away)
TTITLE6=Tex Ritter and His Texans - I'm Wastin' My Tears
TTITLE7=Johnny Mercer - Ac-Cent-Tchu-Ate The Positive
TTITLE8=Johnny Mercer, Jo Stafford, The Pied Pipers - Candy
TTITLE9=The Pied Pipers - Dream
TTITLE10=Jack Guthrie and His Oklahomans - Oklahoma Hills
TTITLE11=Stan Kenton With June Christy - Tampico
TTITLE12=Betty Hutton - Doctor, Lawyer, Indian Chief
TTITLE13=Andy Russell - Laughing On The Outside (Crying On The Inside)
TTITLE14=Merle Travis - So Round, So Firm, So Fully Packed
TTITLE15=Red Ingle With Cinderella G. Stump - Temptation (Tim-Tayshun)
TTITLE16=Tex Williams - Smoke! Smoke! Smoke! (That Cigarette)
TTITLE17=Benny Goodman With Peggy Lee - The Freedom Train
TTITLE18=Peggy Lee - Manana (Is Soon Enough For Me)
TTITLE19=Les Paul - Lover
TTITLE20=Nat King Cole - Nature Boy
TTITLE21=Pee Wee Hunt - Twelfth Street Rag
TTITLE22=Mel Torme - Careless Hands
TTITLE23=Jimmy Wakely and Margaret Whiting - Slippin' Around
TTITLE24=Tennessee Ernie Ford - Mule Train
EXTD=
EXTT0=
EXTT1=
EXTT2=
EXTT3=
EXTT4=
EXTT5=
EXTT6=
EXTT7=
EXTT8=Pipers
EXTT9=
EXTT10=
EXTT11=
EXTT12=
EXTT13=Andy Russell
EXTT14=
EXTT15=Stafford
EXTT16=Willaims
EXTT17=Johnny Mercer,Margaret Whiting,The Pied Piper
EXTT18=
EXTT19=
EXTT20=
EXTT21=
EXTT22=
EXTT23=
EXTT24=
PLAYORDER=
